<mxfile host="Electron" modified="2023-08-27T09:15:47.589Z" agent="Mozilla/5.0 (Windows NT 10.0; Win64; x64) AppleWebKit/537.36 (KHTML, like Gecko) draw.io/21.6.5 Chrome/114.0.5735.243 Electron/25.3.1 Safari/537.36" etag="63k5T0RzMSnjjbU4WgYe" version="21.6.5" type="device">
  <diagram name="Package Diagram BE" id="ge2eAm3NUv3lT533guc2">
    <mxGraphModel dx="4496" dy="1731" grid="1" gridSize="10" guides="1" tooltips="1" connect="1" arrows="1" fold="1" page="1" pageScale="1" pageWidth="850" pageHeight="1100" math="0" shadow="0">
      <root>
        <mxCell id="0" />
        <mxCell id="1" parent="0" />
        <mxCell id="Bcwa2xXrPAEOYMzMxi4w-63" value="" style="shape=folder;fontStyle=1;spacingTop=10;tabWidth=40;tabHeight=14;tabPosition=left;html=1;" parent="1" vertex="1">
          <mxGeometry x="-480" y="125" width="920" height="850" as="geometry" />
        </mxCell>
        <mxCell id="Bcwa2xXrPAEOYMzMxi4w-7" value="models" style="shape=folder;fontStyle=1;spacingTop=10;tabWidth=40;tabHeight=14;tabPosition=left;html=1;" parent="1" vertex="1">
          <mxGeometry x="-390" y="655" width="70" height="50" as="geometry" />
        </mxCell>
        <mxCell id="Bcwa2xXrPAEOYMzMxi4w-67" style="edgeStyle=orthogonalEdgeStyle;rounded=0;orthogonalLoop=1;jettySize=auto;html=1;exitX=0;exitY=0;exitDx=70;exitDy=32;exitPerimeter=0;entryX=0;entryY=0;entryDx=0;entryDy=32;entryPerimeter=0;dashed=1;" parent="1" source="Bcwa2xXrPAEOYMzMxi4w-8" target="Bcwa2xXrPAEOYMzMxi4w-21" edge="1">
          <mxGeometry relative="1" as="geometry" />
        </mxCell>
        <mxCell id="Bcwa2xXrPAEOYMzMxi4w-8" value="config" style="shape=folder;fontStyle=1;spacingTop=10;tabWidth=40;tabHeight=14;tabPosition=left;html=1;" parent="1" vertex="1">
          <mxGeometry x="-390" y="205" width="70" height="50" as="geometry" />
        </mxCell>
        <mxCell id="Bcwa2xXrPAEOYMzMxi4w-9" value="constant" style="shape=folder;fontStyle=1;spacingTop=10;tabWidth=40;tabHeight=14;tabPosition=left;html=1;" parent="1" vertex="1">
          <mxGeometry y="805" width="70" height="50" as="geometry" />
        </mxCell>
        <mxCell id="Bcwa2xXrPAEOYMzMxi4w-43" style="edgeStyle=orthogonalEdgeStyle;rounded=0;orthogonalLoop=1;jettySize=auto;html=1;exitX=0;exitY=0;exitDx=70;exitDy=32;exitPerimeter=0;entryX=0;entryY=0;entryDx=0;entryDy=32;entryPerimeter=0;dashed=1;" parent="1" source="Bcwa2xXrPAEOYMzMxi4w-10" target="Bcwa2xXrPAEOYMzMxi4w-22" edge="1">
          <mxGeometry relative="1" as="geometry" />
        </mxCell>
        <mxCell id="Bcwa2xXrPAEOYMzMxi4w-45" style="edgeStyle=orthogonalEdgeStyle;rounded=0;orthogonalLoop=1;jettySize=auto;html=1;exitX=0;exitY=0;exitDx=0;exitDy=32;exitPerimeter=0;entryX=0;entryY=0;entryDx=70;entryDy=32;entryPerimeter=0;dashed=1;" parent="1" source="Bcwa2xXrPAEOYMzMxi4w-10" target="Bcwa2xXrPAEOYMzMxi4w-7" edge="1">
          <mxGeometry relative="1" as="geometry" />
        </mxCell>
        <mxCell id="Bcwa2xXrPAEOYMzMxi4w-49" style="edgeStyle=orthogonalEdgeStyle;rounded=0;orthogonalLoop=1;jettySize=auto;html=1;exitX=0.5;exitY=1;exitDx=0;exitDy=0;exitPerimeter=0;entryX=0;entryY=0;entryDx=70;entryDy=32;entryPerimeter=0;dashed=1;" parent="1" source="Bcwa2xXrPAEOYMzMxi4w-10" target="Bcwa2xXrPAEOYMzMxi4w-19" edge="1">
          <mxGeometry relative="1" as="geometry" />
        </mxCell>
        <mxCell id="Bcwa2xXrPAEOYMzMxi4w-50" style="edgeStyle=orthogonalEdgeStyle;rounded=0;orthogonalLoop=1;jettySize=auto;html=1;exitX=0.5;exitY=1;exitDx=0;exitDy=0;exitPerimeter=0;entryX=0;entryY=0;entryDx=70;entryDy=32;entryPerimeter=0;dashed=1;" parent="1" source="Bcwa2xXrPAEOYMzMxi4w-10" target="Bcwa2xXrPAEOYMzMxi4w-18" edge="1">
          <mxGeometry relative="1" as="geometry" />
        </mxCell>
        <mxCell id="Bcwa2xXrPAEOYMzMxi4w-10" value="controller" style="shape=folder;fontStyle=1;spacingTop=10;tabWidth=40;tabHeight=14;tabPosition=left;html=1;" parent="1" vertex="1">
          <mxGeometry x="-240" y="655" width="70" height="50" as="geometry" />
        </mxCell>
        <mxCell id="Bcwa2xXrPAEOYMzMxi4w-11" value="dto" style="shape=folder;fontStyle=1;spacingTop=10;tabWidth=40;tabHeight=14;tabPosition=left;html=1;" parent="1" vertex="1">
          <mxGeometry x="-160" y="805" width="70" height="50" as="geometry" />
        </mxCell>
        <mxCell id="Bcwa2xXrPAEOYMzMxi4w-12" value="entity" style="shape=folder;fontStyle=1;spacingTop=10;tabWidth=40;tabHeight=14;tabPosition=left;html=1;" parent="1" vertex="1">
          <mxGeometry x="160" y="805" width="70" height="50" as="geometry" />
        </mxCell>
        <mxCell id="Bcwa2xXrPAEOYMzMxi4w-13" value="enums" style="shape=folder;fontStyle=1;spacingTop=10;tabWidth=40;tabHeight=14;tabPosition=left;html=1;" parent="1" vertex="1">
          <mxGeometry x="240" y="385" width="70" height="50" as="geometry" />
        </mxCell>
        <mxCell id="Bcwa2xXrPAEOYMzMxi4w-14" value="exception" style="shape=folder;fontStyle=1;spacingTop=10;tabWidth=40;tabHeight=14;tabPosition=left;html=1;" parent="1" vertex="1">
          <mxGeometry x="240" y="475" width="70" height="50" as="geometry" />
        </mxCell>
        <mxCell id="Bcwa2xXrPAEOYMzMxi4w-15" value="handler" style="shape=folder;fontStyle=1;spacingTop=10;tabWidth=40;tabHeight=14;tabPosition=left;html=1;" parent="1" vertex="1">
          <mxGeometry x="240" y="295" width="70" height="50" as="geometry" />
        </mxCell>
        <mxCell id="Bcwa2xXrPAEOYMzMxi4w-48" style="edgeStyle=orthogonalEdgeStyle;rounded=0;orthogonalLoop=1;jettySize=auto;html=1;exitX=0.5;exitY=1;exitDx=0;exitDy=0;exitPerimeter=0;entryX=0;entryY=0;entryDx=70;entryDy=32;entryPerimeter=0;dashed=1;" parent="1" source="Bcwa2xXrPAEOYMzMxi4w-17" target="Bcwa2xXrPAEOYMzMxi4w-12" edge="1">
          <mxGeometry relative="1" as="geometry" />
        </mxCell>
        <mxCell id="Bcwa2xXrPAEOYMzMxi4w-17" value="repository" style="shape=folder;fontStyle=1;spacingTop=10;tabWidth=40;tabHeight=14;tabPosition=left;html=1;" parent="1" vertex="1">
          <mxGeometry x="240" y="655" width="70" height="50" as="geometry" />
        </mxCell>
        <mxCell id="Bcwa2xXrPAEOYMzMxi4w-18" value="request" style="shape=folder;fontStyle=1;spacingTop=10;tabWidth=40;tabHeight=14;tabPosition=left;html=1;" parent="1" vertex="1">
          <mxGeometry x="-390" y="895" width="70" height="50" as="geometry" />
        </mxCell>
        <mxCell id="Bcwa2xXrPAEOYMzMxi4w-19" value="response" style="shape=folder;fontStyle=1;spacingTop=10;tabWidth=40;tabHeight=14;tabPosition=left;html=1;" parent="1" vertex="1">
          <mxGeometry x="-390" y="805" width="70" height="50" as="geometry" />
        </mxCell>
        <mxCell id="Bcwa2xXrPAEOYMzMxi4w-55" style="edgeStyle=orthogonalEdgeStyle;rounded=0;orthogonalLoop=1;jettySize=auto;html=1;exitX=0;exitY=0;exitDx=70;exitDy=32;exitPerimeter=0;entryX=0;entryY=0;entryDx=0;entryDy=32;entryPerimeter=0;dashed=1;" parent="1" source="Bcwa2xXrPAEOYMzMxi4w-20" target="Bcwa2xXrPAEOYMzMxi4w-22" edge="1">
          <mxGeometry relative="1" as="geometry">
            <Array as="points">
              <mxPoint x="-120" y="597" />
              <mxPoint x="-120" y="687" />
            </Array>
          </mxGeometry>
        </mxCell>
        <mxCell id="Bcwa2xXrPAEOYMzMxi4w-20" value="scheduler" style="shape=folder;fontStyle=1;spacingTop=10;tabWidth=40;tabHeight=14;tabPosition=left;html=1;" parent="1" vertex="1">
          <mxGeometry x="-240" y="565" width="70" height="50" as="geometry" />
        </mxCell>
        <mxCell id="Bcwa2xXrPAEOYMzMxi4w-21" value="security" style="shape=folder;fontStyle=1;spacingTop=10;tabWidth=40;tabHeight=14;tabPosition=left;html=1;" parent="1" vertex="1">
          <mxGeometry x="240" y="205" width="70" height="50" as="geometry" />
        </mxCell>
        <mxCell id="Bcwa2xXrPAEOYMzMxi4w-42" style="edgeStyle=orthogonalEdgeStyle;rounded=0;orthogonalLoop=1;jettySize=auto;html=1;exitX=0.5;exitY=1;exitDx=0;exitDy=0;exitPerimeter=0;entryX=0;entryY=0;entryDx=70;entryDy=32;entryPerimeter=0;dashed=1;" parent="1" source="Bcwa2xXrPAEOYMzMxi4w-22" target="Bcwa2xXrPAEOYMzMxi4w-11" edge="1">
          <mxGeometry relative="1" as="geometry" />
        </mxCell>
        <mxCell id="Bcwa2xXrPAEOYMzMxi4w-44" style="edgeStyle=orthogonalEdgeStyle;rounded=0;orthogonalLoop=1;jettySize=auto;html=1;exitX=0;exitY=0;exitDx=70;exitDy=32;exitPerimeter=0;entryX=0;entryY=0;entryDx=0;entryDy=32;entryPerimeter=0;dashed=1;" parent="1" source="Bcwa2xXrPAEOYMzMxi4w-22" target="Bcwa2xXrPAEOYMzMxi4w-36" edge="1">
          <mxGeometry relative="1" as="geometry" />
        </mxCell>
        <mxCell id="Bcwa2xXrPAEOYMzMxi4w-22" value="service" style="shape=folder;fontStyle=1;spacingTop=10;tabWidth=40;tabHeight=14;tabPosition=left;html=1;" parent="1" vertex="1">
          <mxGeometry x="-80" y="655" width="70" height="50" as="geometry" />
        </mxCell>
        <mxCell id="Bcwa2xXrPAEOYMzMxi4w-66" style="edgeStyle=orthogonalEdgeStyle;rounded=0;orthogonalLoop=1;jettySize=auto;html=1;exitX=0;exitY=0;exitDx=70;exitDy=32;exitPerimeter=0;entryX=0;entryY=0;entryDx=70;entryDy=32;entryPerimeter=0;dashed=1;" parent="1" source="Bcwa2xXrPAEOYMzMxi4w-23" target="Bcwa2xXrPAEOYMzMxi4w-21" edge="1">
          <mxGeometry relative="1" as="geometry" />
        </mxCell>
        <mxCell id="Bcwa2xXrPAEOYMzMxi4w-23" value="utils" style="shape=folder;fontStyle=1;spacingTop=10;tabWidth=40;tabHeight=14;tabPosition=left;html=1;" parent="1" vertex="1">
          <mxGeometry x="240" y="565" width="70" height="50" as="geometry" />
        </mxCell>
        <mxCell id="Bcwa2xXrPAEOYMzMxi4w-41" style="edgeStyle=orthogonalEdgeStyle;rounded=0;orthogonalLoop=1;jettySize=auto;html=1;exitX=0.5;exitY=1;exitDx=0;exitDy=0;exitPerimeter=0;entryX=0;entryY=0;entryDx=70;entryDy=32;entryPerimeter=0;dashed=1;" parent="1" source="Bcwa2xXrPAEOYMzMxi4w-36" target="Bcwa2xXrPAEOYMzMxi4w-9" edge="1">
          <mxGeometry relative="1" as="geometry" />
        </mxCell>
        <mxCell id="Bcwa2xXrPAEOYMzMxi4w-46" style="edgeStyle=orthogonalEdgeStyle;rounded=0;orthogonalLoop=1;jettySize=auto;html=1;exitX=0;exitY=0;exitDx=70;exitDy=32;exitPerimeter=0;entryX=0;entryY=0;entryDx=0;entryDy=32;entryPerimeter=0;dashed=1;" parent="1" source="Bcwa2xXrPAEOYMzMxi4w-36" target="Bcwa2xXrPAEOYMzMxi4w-17" edge="1">
          <mxGeometry relative="1" as="geometry" />
        </mxCell>
        <mxCell id="Bcwa2xXrPAEOYMzMxi4w-47" style="edgeStyle=orthogonalEdgeStyle;rounded=0;orthogonalLoop=1;jettySize=auto;html=1;exitX=0.5;exitY=1;exitDx=0;exitDy=0;exitPerimeter=0;entryX=0;entryY=0;entryDx=0;entryDy=32;entryPerimeter=0;dashed=1;" parent="1" source="Bcwa2xXrPAEOYMzMxi4w-36" target="Bcwa2xXrPAEOYMzMxi4w-12" edge="1">
          <mxGeometry relative="1" as="geometry" />
        </mxCell>
        <mxCell id="Bcwa2xXrPAEOYMzMxi4w-59" style="edgeStyle=orthogonalEdgeStyle;rounded=0;orthogonalLoop=1;jettySize=auto;html=1;exitX=0;exitY=0;exitDx=70;exitDy=32;exitPerimeter=0;entryX=0;entryY=0;entryDx=0;entryDy=32;entryPerimeter=0;dashed=1;" parent="1" source="Bcwa2xXrPAEOYMzMxi4w-36" target="Bcwa2xXrPAEOYMzMxi4w-23" edge="1">
          <mxGeometry relative="1" as="geometry" />
        </mxCell>
        <mxCell id="Bcwa2xXrPAEOYMzMxi4w-60" style="edgeStyle=orthogonalEdgeStyle;rounded=0;orthogonalLoop=1;jettySize=auto;html=1;exitX=0;exitY=0;exitDx=70;exitDy=32;exitPerimeter=0;entryX=0;entryY=0;entryDx=0;entryDy=32;entryPerimeter=0;dashed=1;" parent="1" source="Bcwa2xXrPAEOYMzMxi4w-36" target="Bcwa2xXrPAEOYMzMxi4w-14" edge="1">
          <mxGeometry relative="1" as="geometry" />
        </mxCell>
        <mxCell id="Bcwa2xXrPAEOYMzMxi4w-61" style="edgeStyle=orthogonalEdgeStyle;rounded=0;orthogonalLoop=1;jettySize=auto;html=1;exitX=0;exitY=0;exitDx=70;exitDy=32;exitPerimeter=0;entryX=0;entryY=0;entryDx=0;entryDy=32;entryPerimeter=0;dashed=1;" parent="1" source="Bcwa2xXrPAEOYMzMxi4w-36" target="Bcwa2xXrPAEOYMzMxi4w-13" edge="1">
          <mxGeometry relative="1" as="geometry" />
        </mxCell>
        <mxCell id="Bcwa2xXrPAEOYMzMxi4w-62" style="edgeStyle=orthogonalEdgeStyle;rounded=0;orthogonalLoop=1;jettySize=auto;html=1;exitX=0;exitY=0;exitDx=70;exitDy=32;exitPerimeter=0;entryX=0;entryY=0;entryDx=0;entryDy=32;entryPerimeter=0;dashed=1;" parent="1" source="Bcwa2xXrPAEOYMzMxi4w-36" target="Bcwa2xXrPAEOYMzMxi4w-15" edge="1">
          <mxGeometry relative="1" as="geometry" />
        </mxCell>
        <mxCell id="Bcwa2xXrPAEOYMzMxi4w-65" style="edgeStyle=orthogonalEdgeStyle;rounded=0;orthogonalLoop=1;jettySize=auto;html=1;exitX=0;exitY=0;exitDx=70;exitDy=32;exitPerimeter=0;entryX=0;entryY=0;entryDx=0;entryDy=32;entryPerimeter=0;dashed=1;" parent="1" source="Bcwa2xXrPAEOYMzMxi4w-36" target="Bcwa2xXrPAEOYMzMxi4w-21" edge="1">
          <mxGeometry relative="1" as="geometry" />
        </mxCell>
        <mxCell id="Bcwa2xXrPAEOYMzMxi4w-36" value="serviceimpl" style="shape=folder;fontStyle=1;spacingTop=10;tabWidth=40;tabHeight=14;tabPosition=left;html=1;" parent="1" vertex="1">
          <mxGeometry x="80" y="655" width="70" height="50" as="geometry" />
        </mxCell>
        <mxCell id="Bcwa2xXrPAEOYMzMxi4w-64" value="&amp;lt;&amp;lt;subsystem&amp;gt;&amp;gt;&lt;br&gt;&lt;b&gt;Back end&lt;/b&gt;" style="text;html=1;strokeColor=none;fillColor=none;align=center;verticalAlign=middle;whiteSpace=wrap;rounded=0;" parent="1" vertex="1">
          <mxGeometry x="-75" y="145" width="110" height="30" as="geometry" />
        </mxCell>
      </root>
    </mxGraphModel>
  </diagram>
</mxfile>
